<?xml version="1.0" encoding="UTF-8"?>
<svg width="300px" height="43px" viewBox="0 0 300 43" version="1.1" xmlns="http://www.w3.org/2000/svg" xmlns:xlink="http://www.w3.org/1999/xlink">
    <!-- Generator: Sketch 43.2 (39069) - http://www.bohemiancoding.com/sketch -->
    <title>immutable</title>
    <desc>Created with Sketch.</desc>
    <defs></defs>
    <g id="Page-1" stroke="none" stroke-width="1" fill="none" fill-rule="evenodd">
        <g id="immutable" fill-rule="nonzero">
            <g id="Group" fill="#FC4349">
                <polygon id="Shape" points="0 0 13.9 0 13.9 41.1 0 41.1"></polygon>
                <polygon id="Shape" points="18.2 0 29 0 39.7 15.8 50.4 0 61.3 0 61.3 41.1 48.1 41.1 48.1 26.3 39.7 38.6 31.3 26.3 31.3 41.1 18.2 41.1"></polygon>
                <polygon id="Shape" points="65.5 0 76.4 0 87 15.8 97.7 0 108.6 0 108.6 41.1 95.4 41.1 95.4 26.3 87 38.7 78.6 26.4 78.6 41.2 65.5 41.2"></polygon>
                <path d="M128.6,42.2 C126,42.2 123.7,41.9 121.6,41.2 C119.5,40.5 117.7,39.6 116.2,38.2 C114.7,36.9 113.6,35.2 112.8,33.2 C112,31.2 111.6,28.8 111.6,26.1 L111.6,0 L124.7,0 L124.7,25.6 C124.7,27 125,28.1 125.6,28.9 C126.2,29.7 127.2,30 128.6,30 C130,30 131,29.6 131.6,28.9 C132.2,28.1 132.5,27 132.5,25.6 L132.5,0 L145.7,0 L145.7,26.1 C145.7,28.8 145.3,31.2 144.5,33.2 C143.7,35.2 142.5,36.9 141,38.2 C139.5,39.5 137.7,40.5 135.6,41.2 C133.5,41.8 131.2,42.2 128.6,42.2 Z" id="Shape"></path>
                <polygon id="Shape" points="155.4 10.8 147.8 10.8 147.8 0 176.5 0 176.5 10.8 168.9 10.8 168.9 41.1 155.3 41.1 155.3 10.8"></polygon>
                <path d="M186.4,0 L196.3,0 L211.9,41.1 L199,41.1 L197.6,37.4 L185.1,37.4 L183.7,41.1 L170.8,41.1 L186.4,0 Z M194.1,28.4 L191.3,21.2 L188.5,28.4 L194.1,28.4 Z" id="Shape"></path>
                <path d="M212.9,0 L229,0 C231.1,0 232.9,0.2 234.6,0.7 C236.3,1.2 237.8,1.9 239,2.8 C240.2,3.7 241.2,4.9 241.8,6.3 C242.5,7.7 242.8,9.3 242.8,11.1 C242.8,12.4 242.6,13.5 242.3,14.5 C242,15.4 241.6,16.2 241.3,16.8 C240.8,17.5 240.3,18.2 239.8,18.6 C240.7,19.2 241.5,19.9 242.3,20.8 C242.9,21.6 243.5,22.6 244,23.8 C244.5,25 244.8,26.5 244.8,28.2 C244.8,30.2 244.5,32 243.8,33.6 C243.1,35.2 242.1,36.6 240.8,37.7 C239.5,38.8 237.9,39.7 236.1,40.3 C234.2,40.9 232.1,41.2 229.8,41.2 L213,41.2 L213,0 L212.9,0 Z M230.2,12.5 C230.2,10.6 229.2,9.7 227.1,9.7 L225.6,9.7 L225.6,15.4 L227.1,15.4 C229.2,15.4 230.2,14.4 230.2,12.5 Z M227.1,31.4 C230.2,31.4 231.8,30.2 231.8,27.8 C231.8,25.4 230.2,24.2 227.1,24.2 L225.6,24.2 L225.6,31.4 L227.1,31.4 L227.1,31.4 Z" id="Shape"></path>
                <polygon id="Shape" points="248.3 0 262 0 262 30.3 273.3 30.3 273.3 41.1 248.3 41.1"></polygon>
                <polygon id="Shape" points="275.3 0 299.5 0 299.5 10.8 288.4 10.8 288.4 15.4 299.3 15.4 299.3 25.6 288.4 25.6 288.4 30.3 300 30.3 300 41.1 275.3 41.1"></polygon>
            </g>
            <g id="Group" fill="#2C3E50">
                <path d="M0,0 L13.9,0 L13.9,41.1 L0,41.1 L0,0 Z M7.8,36.2 L7.8,4.9 L6.2,4.9 L6.2,36.2 L7.8,36.2 Z" id="Shape"></path>
                <path d="M18.2,0 L29,0 L39.7,15.8 L50.4,0 L61.3,0 L61.3,41.1 L48.1,41.1 L48.1,26.3 L39.7,38.6 L31.3,26.3 L31.3,41.1 L18.2,41.1 L18.2,0 Z M25.9,36.2 L25.9,7.9 L39.7,28 L53.5,7.9 L53.5,36.2 L55.1,36.2 L55.1,4.9 L53.5,4.9 L39.7,25.2 L25.9,4.9 L24.3,4.9 L24.3,36.2 L25.9,36.2 Z" id="Shape"></path>
                <path d="M65.5,0 L76.4,0 L87,15.8 L97.7,0 L108.6,0 L108.6,41.1 L95.4,41.1 L95.4,26.3 L87,38.7 L78.6,26.4 L78.6,41.2 L65.5,41.2 L65.5,0 Z M73.2,36.2 L73.2,7.9 L87,28 L100.7,7.9 L100.7,36.2 L102.3,36.2 L102.3,4.9 L100.7,4.9 L87,25.2 L73.2,4.9 L71.6,4.9 L71.6,36.2 L73.2,36.2 Z" id="Shape"></path>
                <path d="M128.6,42.2 C126,42.2 123.7,41.9 121.6,41.2 C119.5,40.5 117.7,39.6 116.2,38.2 C114.7,36.9 113.6,35.2 112.8,33.2 C112,31.2 111.6,28.8 111.6,26.1 L111.6,0 L124.7,0 L124.7,25.6 C124.7,27 125,28.1 125.6,28.9 C126.2,29.7 127.2,30 128.6,30 C130,30 131,29.6 131.6,28.9 C132.2,28.1 132.5,27 132.5,25.6 L132.5,0 L145.7,0 L145.7,26.1 C145.7,28.8 145.3,31.2 144.5,33.2 C143.7,35.2 142.5,36.9 141,38.2 C139.5,39.5 137.7,40.5 135.6,41.2 C133.5,41.8 131.2,42.2 128.6,42.2 Z M128.6,34.8 C122.4,34.8 119.4,31.8 119.4,25.7 L119.4,4.9 L117.8,4.9 L117.8,25.7 C117.8,29.2 118.7,31.8 120.6,33.6 C122.5,35.4 125.2,36.3 128.6,36.3 C132.1,36.3 134.8,35.4 136.7,33.6 C138.6,31.8 139.5,29.1 139.5,25.7 L139.5,4.9 L137.8,4.9 L137.8,25.7 C137.8,31.7 134.8,34.8 128.6,34.8 Z" id="Shape"></path>
                <path d="M155.4,10.8 L147.8,10.8 L147.8,0 L176.5,0 L176.5,10.8 L168.9,10.8 L168.9,41.1 L155.3,41.1 L155.3,10.8 L155.4,10.8 Z M163,36.2 L163,6.4 L171.8,6.4 L171.8,4.9 L152.6,4.9 L152.6,6.4 L161.4,6.4 L161.4,36.2 L163,36.2 Z" id="Shape"></path>
                <path d="M186.4,0 L196.3,0 L211.9,41.1 L199,41.1 L197.6,37.4 L185.1,37.4 L183.7,41.1 L170.8,41.1 L186.4,0 Z M180,36.2 L181.2,33.1 L201.5,33.1 L202.7,36.2 L204.4,36.2 L192.5,4.9 L190.2,4.9 L178.3,36.2 L180,36.2 Z M191.3,6.4 L200.9,31.6 L181.7,31.6 L191.3,6.4 Z M194.1,28.4 L191.3,21.2 L188.5,28.4 L194.1,28.4 Z" id="Shape"></path>
                <path d="M212.9,0 L229,0 C231.1,0 232.9,0.2 234.6,0.7 C236.3,1.2 237.8,1.9 239,2.8 C240.2,3.7 241.2,4.9 241.8,6.3 C242.5,7.7 242.8,9.3 242.8,11.1 C242.8,12.4 242.6,13.5 242.3,14.5 C242,15.4 241.6,16.2 241.3,16.8 C240.8,17.5 240.3,18.2 239.8,18.6 C240.7,19.2 241.5,19.9 242.3,20.8 C242.9,21.6 243.5,22.6 244,23.8 C244.5,25 244.8,26.5 244.8,28.2 C244.8,30.2 244.5,32 243.8,33.6 C243.1,35.2 242.1,36.6 240.8,37.7 C239.5,38.8 237.9,39.7 236.1,40.3 C234.2,40.9 232.1,41.2 229.8,41.2 L213,41.2 L213,0 L212.9,0 Z M228,36.2 C231.6,36.2 234.3,35.4 236,33.9 C237.7,32.3 238.6,30.3 238.6,27.7 C238.6,26 238.2,24.7 237.5,23.7 C236.8,22.7 236,21.9 235.2,21.3 C234.2,20.6 233,20.2 231.8,19.9 C232.8,19.6 233.7,19.2 234.5,18.5 C235.2,18 235.8,17.2 236.4,16.3 C237,15.4 237.2,14.2 237.2,12.8 C237.2,10.2 236.4,8.3 234.7,6.9 C233.1,5.6 230.8,4.9 228,4.9 L219.1,4.9 L219.1,36.2 L228,36.2 L228,36.2 Z M220.7,19.1 L220.7,6.4 L228,6.4 C230.7,6.4 232.6,7 233.8,8.2 C235,9.4 235.6,10.9 235.6,12.8 C235.6,14.7 235,16.2 233.8,17.4 C232.6,18.6 230.7,19.2 228,19.2 L220.7,19.2 L220.7,19.1 Z M220.7,34.7 L220.7,20.6 L227.9,20.6 C229.2,20.6 230.4,20.7 231.4,21 C232.5,21.3 233.4,21.7 234.3,22.2 C235.1,22.8 235.8,23.5 236.2,24.4 C236.7,25.3 236.9,26.4 236.9,27.6 C236.9,30.1 236.1,31.9 234.4,33 C232.7,34.1 230.5,34.7 227.8,34.7 L220.7,34.7 Z M230.2,12.5 C230.2,10.6 229.2,9.7 227.1,9.7 L225.6,9.7 L225.6,15.4 L227.1,15.4 C229.2,15.4 230.2,14.4 230.2,12.5 Z M227.1,31.4 C230.2,31.4 231.8,30.2 231.8,27.8 C231.8,25.4 230.2,24.2 227.1,24.2 L225.6,24.2 L225.6,31.4 L227.1,31.4 L227.1,31.4 Z" id="Shape"></path>
                <path d="M248.3,0 L262,0 L262,30.3 L273.3,30.3 L273.3,41.1 L248.3,41.1 L248.3,0 Z M269.9,36.2 L269.9,34.7 L256.1,34.7 L256.1,4.9 L254.5,4.9 L254.5,36.2 L269.9,36.2 Z" id="Shape"></path>
                <path d="M275.3,0 L299.5,0 L299.5,10.8 L288.4,10.8 L288.4,15.4 L299.3,15.4 L299.3,25.6 L288.4,25.6 L288.4,30.3 L300,30.3 L300,41.1 L275.3,41.1 L275.3,0 Z M295.4,36.2 L295.4,34.7 L283.1,34.7 L283.1,21.2 L294.8,21.2 L294.8,19.7 L283.1,19.7 L283.1,6.4 L295.4,6.4 L295.4,4.9 L281.5,4.9 L281.5,36.2 L295.4,36.2 Z" id="Shape"></path>
            </g>
        </g>
    </g>
</svg>